<mxfile host="Electron" agent="Mozilla/5.0 (Windows NT 10.0; Win64; x64) AppleWebKit/537.36 (KHTML, like Gecko) draw.io/27.0.9 Chrome/134.0.6998.205 Electron/35.4.0 Safari/537.36" version="27.0.9">
  <diagram name="Page-1" id="ctU4fTcBu7hq6x0xD3_9">
    <mxGraphModel dx="2276" dy="849" grid="1" gridSize="10" guides="1" tooltips="1" connect="1" arrows="1" fold="1" page="1" pageScale="1" pageWidth="850" pageHeight="1100" math="0" shadow="0">
      <root>
        <mxCell id="0" />
        <mxCell id="1" parent="0" />
        <mxCell id="Z2X1OrnwVzwmxfiVDuPY-1" value="Задержка&lt;span style=&quot;background-color: transparent; color: light-dark(rgb(0, 0, 0), rgb(255, 255, 255));&quot;&gt;&amp;nbsp;миграции&lt;/span&gt;&lt;div&gt;&lt;span style=&quot;background-color: transparent; color: light-dark(rgb(0, 0, 0), rgb(255, 255, 255));&quot;&gt;и увеличение стоимости&lt;/span&gt;&lt;/div&gt;" style="triangle;whiteSpace=wrap;html=1;fillColor=#dae8fc;strokeColor=#6c8ebf;labelPosition=center;verticalLabelPosition=middle;align=center;verticalAlign=middle;spacingLeft=-20;" vertex="1" parent="1">
          <mxGeometry x="620" y="180" width="180" height="200" as="geometry" />
        </mxCell>
        <mxCell id="Z2X1OrnwVzwmxfiVDuPY-2" value="" style="endArrow=classic;html=1;rounded=0;entryX=0;entryY=0.5;entryDx=0;entryDy=0;endFill=1;" edge="1" parent="1" target="Z2X1OrnwVzwmxfiVDuPY-1">
          <mxGeometry width="50" height="50" relative="1" as="geometry">
            <mxPoint x="100" y="280" as="sourcePoint" />
            <mxPoint x="390" y="330" as="targetPoint" />
          </mxGeometry>
        </mxCell>
        <mxCell id="Z2X1OrnwVzwmxfiVDuPY-3" value="" style="triangle;whiteSpace=wrap;html=1;fillColor=#dae8fc;strokeColor=#6c8ebf;" vertex="1" parent="1">
          <mxGeometry x="60" y="260" width="40" height="40" as="geometry" />
        </mxCell>
        <mxCell id="Z2X1OrnwVzwmxfiVDuPY-4" value="" style="endArrow=none;html=1;rounded=0;" edge="1" parent="1">
          <mxGeometry width="50" height="50" relative="1" as="geometry">
            <mxPoint x="380" y="80" as="sourcePoint" />
            <mxPoint x="580" y="280" as="targetPoint" />
          </mxGeometry>
        </mxCell>
        <mxCell id="Z2X1OrnwVzwmxfiVDuPY-5" value="" style="endArrow=none;html=1;rounded=0;" edge="1" parent="1">
          <mxGeometry width="50" height="50" relative="1" as="geometry">
            <mxPoint x="100" y="80" as="sourcePoint" />
            <mxPoint x="300" y="280" as="targetPoint" />
          </mxGeometry>
        </mxCell>
        <mxCell id="Z2X1OrnwVzwmxfiVDuPY-6" value="" style="endArrow=none;html=1;rounded=0;" edge="1" parent="1">
          <mxGeometry width="50" height="50" relative="1" as="geometry">
            <mxPoint x="300" y="280" as="sourcePoint" />
            <mxPoint x="100" y="480" as="targetPoint" />
          </mxGeometry>
        </mxCell>
        <mxCell id="Z2X1OrnwVzwmxfiVDuPY-7" value="" style="endArrow=none;html=1;rounded=0;" edge="1" parent="1">
          <mxGeometry width="50" height="50" relative="1" as="geometry">
            <mxPoint x="580" y="280" as="sourcePoint" />
            <mxPoint x="380" y="480" as="targetPoint" />
          </mxGeometry>
        </mxCell>
        <mxCell id="Z2X1OrnwVzwmxfiVDuPY-8" value="Программное&lt;div&gt;обеспечение&lt;/div&gt;" style="rounded=1;whiteSpace=wrap;html=1;fillColor=#dae8fc;strokeColor=#6c8ebf;" vertex="1" parent="1">
          <mxGeometry x="320" y="480" width="120" height="40" as="geometry" />
        </mxCell>
        <mxCell id="Z2X1OrnwVzwmxfiVDuPY-9" value="Аппаратное&lt;div&gt;обеспечение&lt;/div&gt;" style="rounded=1;whiteSpace=wrap;html=1;fillColor=#dae8fc;strokeColor=#6c8ebf;" vertex="1" parent="1">
          <mxGeometry x="40" y="480" width="120" height="40" as="geometry" />
        </mxCell>
        <mxCell id="Z2X1OrnwVzwmxfiVDuPY-10" value="Персонал" style="rounded=1;whiteSpace=wrap;html=1;fillColor=#dae8fc;strokeColor=#6c8ebf;" vertex="1" parent="1">
          <mxGeometry x="320" y="40" width="120" height="40" as="geometry" />
        </mxCell>
        <mxCell id="Z2X1OrnwVzwmxfiVDuPY-11" value="Процессы" style="rounded=1;whiteSpace=wrap;html=1;fillColor=#dae8fc;strokeColor=#6c8ebf;" vertex="1" parent="1">
          <mxGeometry x="40" y="40" width="120" height="40" as="geometry" />
        </mxCell>
        <mxCell id="Z2X1OrnwVzwmxfiVDuPY-12" value="Нехватка компетенций" style="text;html=1;align=center;verticalAlign=middle;resizable=0;points=[];autosize=1;strokeColor=none;fillColor=none;" vertex="1" parent="1">
          <mxGeometry x="390" y="240" width="150" height="30" as="geometry" />
        </mxCell>
        <mxCell id="Z2X1OrnwVzwmxfiVDuPY-13" value="Необходимость найма" style="text;html=1;align=center;verticalAlign=middle;resizable=0;points=[];autosize=1;strokeColor=none;fillColor=none;" vertex="1" parent="1">
          <mxGeometry x="350" y="200" width="150" height="30" as="geometry" />
        </mxCell>
        <mxCell id="Z2X1OrnwVzwmxfiVDuPY-14" value="Необходимость обучения" style="text;html=1;align=center;verticalAlign=middle;resizable=0;points=[];autosize=1;strokeColor=none;fillColor=none;" vertex="1" parent="1">
          <mxGeometry x="290" y="160" width="170" height="30" as="geometry" />
        </mxCell>
        <mxCell id="Z2X1OrnwVzwmxfiVDuPY-15" value="Несоблюдение законодательства" style="text;html=1;align=center;verticalAlign=middle;resizable=0;points=[];autosize=1;strokeColor=none;fillColor=none;" vertex="1" parent="1">
          <mxGeometry x="20" y="210" width="210" height="30" as="geometry" />
        </mxCell>
        <mxCell id="Z2X1OrnwVzwmxfiVDuPY-16" value="Сложность миграции" style="text;html=1;align=center;verticalAlign=middle;resizable=0;points=[];autosize=1;strokeColor=none;fillColor=none;" vertex="1" parent="1">
          <mxGeometry x="120" y="240" width="140" height="30" as="geometry" />
        </mxCell>
        <mxCell id="Z2X1OrnwVzwmxfiVDuPY-17" value="Отсутствие CI/CD" style="text;html=1;align=center;verticalAlign=middle;resizable=0;points=[];autosize=1;strokeColor=none;fillColor=none;" vertex="1" parent="1">
          <mxGeometry x="-10" y="90" width="120" height="30" as="geometry" />
        </mxCell>
        <mxCell id="Z2X1OrnwVzwmxfiVDuPY-18" value="Плохая система хранения данных" style="text;html=1;align=center;verticalAlign=middle;resizable=0;points=[];autosize=1;strokeColor=none;fillColor=none;" vertex="1" parent="1">
          <mxGeometry x="-60" y="130" width="210" height="30" as="geometry" />
        </mxCell>
        <mxCell id="Z2X1OrnwVzwmxfiVDuPY-19" value="Отсутствие разграничения прав и ролей" style="text;html=1;align=center;verticalAlign=middle;resizable=0;points=[];autosize=1;strokeColor=none;fillColor=none;" vertex="1" parent="1">
          <mxGeometry x="-60" y="170" width="250" height="30" as="geometry" />
        </mxCell>
        <mxCell id="Z2X1OrnwVzwmxfiVDuPY-20" value="Нет знаний рынка" style="text;html=1;align=center;verticalAlign=middle;resizable=0;points=[];autosize=1;strokeColor=none;fillColor=none;" vertex="1" parent="1">
          <mxGeometry x="140" y="290" width="120" height="30" as="geometry" />
        </mxCell>
        <mxCell id="Z2X1OrnwVzwmxfiVDuPY-21" value="Нет знаний рынка" style="text;html=1;align=center;verticalAlign=middle;resizable=0;points=[];autosize=1;strokeColor=none;fillColor=none;" vertex="1" parent="1">
          <mxGeometry x="420" y="290" width="120" height="30" as="geometry" />
        </mxCell>
        <mxCell id="Z2X1OrnwVzwmxfiVDuPY-22" value="Нет вычислительных мощностей для сервисов" style="text;html=1;align=center;verticalAlign=middle;resizable=0;points=[];autosize=1;strokeColor=none;fillColor=none;" vertex="1" parent="1">
          <mxGeometry x="-70" y="330" width="290" height="30" as="geometry" />
        </mxCell>
        <mxCell id="Z2X1OrnwVzwmxfiVDuPY-23" value="Нет баз данных" style="text;html=1;align=center;verticalAlign=middle;resizable=0;points=[];autosize=1;strokeColor=none;fillColor=none;" vertex="1" parent="1">
          <mxGeometry x="390" y="330" width="110" height="30" as="geometry" />
        </mxCell>
        <mxCell id="Z2X1OrnwVzwmxfiVDuPY-24" value="Нет готовой модели данных" style="text;html=1;align=center;verticalAlign=middle;resizable=0;points=[];autosize=1;strokeColor=none;fillColor=none;" vertex="1" parent="1">
          <mxGeometry x="280" y="370" width="180" height="30" as="geometry" />
        </mxCell>
        <mxCell id="Z2X1OrnwVzwmxfiVDuPY-25" value="Риск ошибиться" style="text;html=1;align=center;verticalAlign=middle;resizable=0;points=[];autosize=1;strokeColor=none;fillColor=none;" vertex="1" parent="1">
          <mxGeometry x="270" y="450" width="110" height="30" as="geometry" />
        </mxCell>
        <mxCell id="Z2X1OrnwVzwmxfiVDuPY-26" value="Нагрузка на документирование" style="text;html=1;align=center;verticalAlign=middle;resizable=0;points=[];autosize=1;strokeColor=none;fillColor=none;" vertex="1" parent="1">
          <mxGeometry x="220" y="410" width="200" height="30" as="geometry" />
        </mxCell>
        <mxCell id="Z2X1OrnwVzwmxfiVDuPY-27" value="Слаживание команд" style="text;html=1;align=center;verticalAlign=middle;resizable=0;points=[];autosize=1;strokeColor=none;fillColor=none;" vertex="1" parent="1">
          <mxGeometry x="280" y="120" width="140" height="30" as="geometry" />
        </mxCell>
        <mxCell id="Z2X1OrnwVzwmxfiVDuPY-28" value="Нет аппаратуры для отдела разработки" style="text;html=1;align=center;verticalAlign=middle;resizable=0;points=[];autosize=1;strokeColor=none;fillColor=none;" vertex="1" parent="1">
          <mxGeometry x="-70" y="370" width="250" height="30" as="geometry" />
        </mxCell>
        <mxCell id="Z2X1OrnwVzwmxfiVDuPY-29" value="Нужно настроить права и роли" style="text;html=1;align=center;verticalAlign=middle;resizable=0;points=[];autosize=1;strokeColor=none;fillColor=none;" vertex="1" parent="1">
          <mxGeometry x="410" y="450" width="200" height="30" as="geometry" />
        </mxCell>
        <mxCell id="Z2X1OrnwVzwmxfiVDuPY-30" value="Нужно настроить шифрование" style="text;html=1;align=center;verticalAlign=middle;resizable=0;points=[];autosize=1;strokeColor=none;fillColor=none;" vertex="1" parent="1">
          <mxGeometry x="450" y="410" width="200" height="30" as="geometry" />
        </mxCell>
      </root>
    </mxGraphModel>
  </diagram>
</mxfile>
